**********************
Windows PowerShell transcript start
Start time: 20240815105213
Username: LOOKING_GLASS\franc
RunAs User: LOOKING_GLASS\franc
Configuration Name: 
Machine: LOOKING_GLASS (Microsoft Windows NT 10.0.22631.0)
Host Application: powershell.exe -ExecutionPolicy Bypass -File ConvertToWav.ps1
Process ID: 68488
PSVersion: 5.1.22621.3880
PSEdition: Desktop
PSCompatibleVersions: 1.0, 2.0, 3.0, 4.0, 5.0, 5.1.22621.3880
BuildVersion: 10.0.22621.3880
CLRVersion: 4.0.30319.42000
WSManStackVersion: 3.0
PSRemotingProtocolVersion: 2.3
SerializationVersion: 1.1.0.1
**********************
Transcript started, output file is log1.txt
All output being saved to log1.txt
Processing directory: .\RenameThese
Starting audio conversion to WAV in directory: .\RenameThese...
  libswscale      7.  5.100 /  7.  5.100
  libswresample   4. 12.100 /  4. 12.100
  libpostproc    57.  3.100 / 57.  3.100
Input #0, ogg, from 'C:\Users\franc\OneDrive\Documents\GitHub\VAC-Scripts\RenameAudio\RenameThese\YourVoiceFilesHere.ogg
':
  Duration: 00:00:04.36, start: 0.000000, bitrate: 37 kb/s
  Stream #0:0: Audio: vorbis, 44100 Hz, mono, fltp, 32 kb/s
    Metadata:
      encoder         : Lavc60.31.102 libvorbis
Stream mapping:
  Stream #0:0 -> #0:0 (vorbis (native) -> pcm_s16le (native))
Press [q] to stop, [?] for help
Output #0, wav, to 'C:\Users\franc\OneDrive\Documents\GitHub\VAC-Scripts\RenameAudio\RenameThese\YourVoiceFilesHere.wav'
:
  Metadata:
    ISFT            : Lavf60.16.100
  Stream #0:0: Audio: pcm_s16le ([1][0][0][0] / 0x0001), 44100 Hz, mono, s16, 705 kb/s
    Metadata:
      encoder         : Lavc60.31.102 pcm_s16le
[out#0/wav @ 000002299de6c300] video:0kB audio:375kB subtitle:0kB other streams:0kB global headers:0kB muxing overhead:
0.020296%
size=     375kB time=00:00:04.32 bitrate= 710.6kbits/s speed= 853x
Converted file: C:\Users\franc\OneDrive\Documents\GitHub\VAC-Scripts\RenameAudio\RenameThese\YourVoiceFilesHere.ogg to C:\Users\franc\OneDrive\Documents\GitHub\VAC-Scripts\RenameAudio\RenameThese\YourVoiceFilesHere.wav
Deleted original file: C:\Users\franc\OneDrive\Documents\GitHub\VAC-Scripts\RenameAudio\RenameThese\YourVoiceFilesHere.ogg
Audio conversion to WAV completed in directory: .\RenameThese.

####################################################

All audio files converted to WAV format.

####################################################
**********************
Windows PowerShell transcript end
End time: 20240815105213
**********************
